<?xml version="1.0" encoding="UTF-8" standalone="no"?>
<svg
   xmlns:dc="http://purl.org/dc/elements/1.1/"
   xmlns:cc="http://creativecommons.org/ns#"
   xmlns:rdf="http://www.w3.org/1999/02/22-rdf-syntax-ns#"
   xmlns:svg="http://www.w3.org/2000/svg"
   xmlns="http://www.w3.org/2000/svg"
   id="svg8"
   version="1.1"
   viewBox="0 0 74.399009 77.748952"
   height="77.748955mm"
   width="74.39901mm">
  <defs
     id="defs2" />
  <metadata
     id="metadata5">
    <rdf:RDF>
      <cc:Work
         rdf:about="">
        <dc:format>image/svg+xml</dc:format>
        <dc:type
           rdf:resource="http://purl.org/dc/dcmitype/StillImage" />
        <dc:title></dc:title>
      </cc:Work>
    </rdf:RDF>
  </metadata>
  <g
     transform="translate(-66.253497,-91.464166)"
     id="layer1">
    <path
       id="path1147"
       d="m 128.88192,168.45105 c 0.96225,-0.96225 0.8223,-2.76415 -0.44419,-5.71873 -0.61073,-1.4248 -1.11042,-2.91064 -1.11042,-3.30189 0,-0.39125 1.06496,-1.11807 2.36657,-1.61517 3.15071,-1.20326 6.47708,-4.0131 7.4187,-6.2667 1.21796,-2.91503 0.96645,-6.69511 -0.62634,-9.41298 -1.68154,-2.86935 -3.7282,-4.40534 -7.05579,-5.29533 -2.27141,-0.60752 -2.86323,-0.53342 -6.49699,0.81348 -2.19886,0.81505 -4.508,1.4819 -5.13145,1.4819 -1.39776,0 -4.1424,-2.85787 -5.21884,-5.43416 -0.80348,-1.92298 -1.07094,-7.66431 -0.4627,-9.93207 l 0.32406,-1.20823 1.75042,1.06734 c 3.19931,1.95082 5.24019,1.01407 6.186,-2.83931 0.34464,-1.4041 0.37636,-1.41118 5.45096,-1.21658 4.40433,0.16892 5.35366,0.039 6.92261,-0.94759 2.19059,-1.37747 3.10013,-3.49382 2.67114,-6.2154 -0.28685,-1.81977 -0.12686,-2.1648 1.62206,-3.49879 1.99354,-1.52055 3.60479,-4.01717 3.60479,-5.5856 0,-0.4878 -0.66111,-1.4996 -1.46912,-2.24844 -3.1476,-2.917113 -9.15096,-1.150066 -19.62911,5.77766 -2.29027,1.51422 -4.23899,2.6803 -4.33049,2.59128 -0.0914,-0.0891 0.1152,-1.77898 0.45942,-3.75546 1.09478,-6.286644 -0.95672,-10.46477 -6.37774,-12.989133 -3.38721,-1.577289 -5.91397,-1.63988 -9.0335,-0.223785 -3.047976,1.383628 -4.293861,3.517474 -5.761169,9.867298 -0.653711,2.82901 -1.369384,5.14363 -1.590368,5.14363 -0.220983,0 -2.486339,-1.39526 -5.034101,-3.10058 -10.840481,-7.255962 -17.192665,-9.163081 -20.270029,-6.085716 -0.749542,0.749542 -1.362806,1.781906 -1.362806,2.294126 0,1.4038 1.936109,4.25195 3.85456,5.67033 1.531332,1.13215 1.670161,1.47553 1.365921,3.37816 -0.463843,2.90073 0.922948,5.4558 3.561053,6.56097 1.509881,0.63251 3.22625,0.78358 6.557523,0.57717 l 4.512346,-0.27961 0.664838,2.21904 c 0.471586,1.57401 1.096606,2.3818 2.150241,2.77903 l 1.485439,0.55999 -0.189459,5.43949 c -0.33581,9.64142 2.474867,17.182 9.052692,24.28682 1.644269,1.77602 3.883029,3.71027 4.975009,4.29834 1.09198,0.58808 1.98542,1.34806 1.98542,1.68887 0,0.3408 -0.50946,2.09538 -1.13213,3.89905 -1.2747,3.69242 -1.08118,5.52926 0.64011,6.07557 1.606,0.50972 2.71439,-0.73906 4.08401,-4.60124 1.01269,-2.85563 1.29252,-3.18821 2.65648,-3.15716 0.83851,0.019 3.36375,0.0815 5.61164,0.13882 l 4.08706,0.10403 1.21853,3.19249 c 2.07304,5.43126 3.64296,6.86889 5.48714,5.02471 z m -28.41987,-50.94501 c -2.048232,-0.77873 -3.117752,-3.30909 -3.107931,-7.35289 0.0094,-3.87963 0.543936,-5.21864 1.878727,-4.70643 0.694961,0.26668 0.888854,1.16842 0.888854,4.13398 0,3.87824 0.55088,5.12542 2.26393,5.12542 1.40649,0 2.21957,-1.31413 2.64253,-4.27097 0.30976,-2.16551 0.59008,-2.66925 1.48539,-2.66925 0.96363,0 1.10064,0.36839 1.0804,2.90523 -0.0253,3.1726 -1.26596,5.44438 -3.63926,6.66407 -1.62037,0.83274 -1.73674,0.83844 -3.49264,0.17084 z m 7.3376,-14.26793 c -1.26424,-1.1441 -1.31001,-3.387424 -0.0965,-4.728369 1.90655,-2.106698 5.74372,-0.623934 5.74372,2.219499 0,2.96984 -3.44613,4.50085 -5.64724,2.50887 z m 3.96007,-1.26176 c 0.99943,-1.86744 -0.52423,-3.76641 -2.43401,-3.033551 -1.92713,0.739501 -1.27955,4.103761 0.78989,4.103761 0.58925,0 1.3291,-0.48159 1.64412,-1.07021 z M 97.1993,101.00389 c -1.329503,-2.917938 1.332934,-5.792355 4.09136,-4.417132 1.90284,0.948649 1.92512,4.742032 0.0334,5.685162 -1.735586,0.86528 -3.383618,0.35864 -4.124772,-1.26803 z m 4.28562,-0.65519 c 0.50131,-1.579527 -0.2315,-2.854308 -1.640826,-2.854308 -1.409328,0 -2.142156,1.274781 -1.640824,2.854308 0.19769,0.62286 0.848411,1.03222 1.640824,1.03222 0.792416,0 1.443136,-0.40936 1.640826,-1.03222 z"
       style="fill:#000000;stroke-width:0.555217" />
  </g>
</svg>
