<?xml version="1.0" encoding="UTF-8" standalone="no"?>
<svg
   xmlns:dc="http://purl.org/dc/elements/1.1/"
   xmlns:cc="http://creativecommons.org/ns#"
   xmlns:rdf="http://www.w3.org/1999/02/22-rdf-syntax-ns#"
   xmlns:svg="http://www.w3.org/2000/svg"
   xmlns="http://www.w3.org/2000/svg"
   id="svg8"
   version="1.1"
   viewBox="0 0 121.85784 140.11024"
   height="140.11024mm"
   width="121.85784mm">
  <defs
     id="defs2" />
  <metadata
     id="metadata5">
    <rdf:RDF>
      <cc:Work
         rdf:about="">
        <dc:format>image/svg+xml</dc:format>
        <dc:type
           rdf:resource="http://purl.org/dc/dcmitype/StillImage" />
        <dc:title></dc:title>
      </cc:Work>
    </rdf:RDF>
  </metadata>
  <g
     transform="translate(-44.225295,-64.147064)"
     id="layer1">
    <path
       id="path995"
       d="m 165.11491,203.68627 c 1.19594,-0.871 1.3002,-2.49976 0.22228,-3.45083 -0.42765,-0.37812 -2.27906,-1.43671 -4.11343,-2.35347 -1.83425,-0.91689 -3.58285,-2.01994 -3.88559,-2.45156 -0.30321,-0.43126 -1.47487,-1.09929 -2.60437,-1.48453 -2.04529,-0.69703 -3.54903,-2.05859 -7.99502,-7.24038 -1.0824,-1.2619 -1.96848,-2.43622 -1.96848,-2.60945 0,-0.17395 -0.55086,-0.97487 -1.22299,-1.78243 -0.67288,-0.80695 -1.88947,-2.37497 -2.70428,-3.48453 -1.36542,-1.85926 -1.44128,-2.13204 -0.96882,-3.48296 0.91204,-2.60811 0.0966,-4.73942 -2.49868,-6.56063 -3.44744,-2.41543 -6.65292,-5.42534 -7.44442,-6.99033 -0.3926,-0.77675 -1.86747,-2.37786 -3.27687,-3.55749 -1.40927,-1.18024 -3.96315,-3.55435 -5.67515,-5.27711 -1.71213,-1.72264 -4.73858,-4.57996 -6.72553,-6.34947 -2.94672,-2.62443 -3.66078,-3.51474 -3.87424,-4.83063 -0.14375,-0.88668 -0.78038,-2.15462 -1.41459,-2.81638 -0.79971,-0.83474 -1.42401,-2.34452 -2.03925,-4.93331 -0.62576,-2.63432 -1.19232,-3.99141 -1.92752,-4.61958 -0.66079,-0.56536 -1.22505,-1.76636 -1.54506,-3.2927 -0.46146,-2.20174 -0.42884,-2.47366 0.39503,-3.24136 0.53152,-0.49408 0.89997,-1.40541 0.89997,-2.223 0,-1.03406 0.43368,-1.79028 1.71406,-2.98428 0.94225,-0.87944 1.8078,-1.89321 1.92232,-2.25248 0.16067,-0.50253 0.60763,-0.32375 1.94491,0.77797 0.95554,0.78763 2.06922,1.43138 2.47608,1.43138 0.4071,0 1.70826,0.80091 2.89224,1.77869 1.18386,0.97849 2.35624,1.78231 2.60533,1.78666 0.24885,0.005 2.19763,0.19207 4.33027,0.41555 5.43355,0.5714 11.01701,-0.0242 11.84136,-1.26733 0.34187,-0.51461 0.86978,-0.935 1.1742,-0.935 0.30442,0 1.59797,-0.43368 2.87459,-0.964 1.77277,-0.7369 2.40142,-0.83475 2.66044,-0.41556 0.21018,0.33945 1.08601,0.49528 2.29619,0.40831 1.71297,-0.12322 1.97331,-0.27906 2.08735,-1.25465 0.0846,-0.67649 0.633,-1.40287 1.40794,-1.84791 1.09325,-0.62817 1.32387,-1.10292 1.59785,-3.29547 0.21381,-1.70911 0.14731,-2.83957 -0.20054,-3.39538 -0.2863,-0.45784 -0.41193,-1.0087 -0.27904,-1.22385 0.31407,-0.50737 -0.9785,-1.79656 -1.79948,-1.79656 -0.34912,0 -0.63542,-0.39986 -0.63542,-0.88911 0,-0.48924 0.0846,-0.8891 0.1933,-0.8891 0.18119,0 14.08042,3.7242 16.03765,4.29705 0.79246,0.23194 0.76831,0.12925 -0.22227,-0.94347 -1.4646,-1.58528 -6.41459,-3.87424 -11.11728,-5.14096 -2.079,-0.56052 -3.9478,-1.16574 -4.15292,-1.34477 -0.20537,-0.18 -0.0604,-3.400696 0.33461,-7.157878 0.38898,-3.757059 0.70669,-7.015933 0.70669,-7.241954 -4.9e-4,-0.225899 -0.48442,0.04832 -1.07635,0.599177 -1.81359,1.70379 -3.05266,5.203907 -3.27843,9.261159 -0.10869,2.017755 -0.30684,3.668633 -0.43128,3.668633 -0.12557,0 -8.05458,-2.13155 -17.62076,-4.736884 -12.24642,-3.33522 -17.72201,-5.020408 -18.5048,-5.695086 -0.61126,-0.526696 -1.98152,-1.512923 -3.04469,-2.190623 -1.82242,-1.162114 -1.91628,-1.320967 -1.64146,-2.785571 0.16067,-0.854068 0.39019,-1.810095 0.50978,-2.12406 0.23798,-0.620921 -2.744616,-1.13433 -6.630088,-1.14037 -2.560881,-0.0047 -4.875567,-1.066681 -4.669477,-2.141938 0.233147,-1.216355 2.906373,-1.812271 8.249079,-1.839089 l 5.002766,-0.02416 v -3.134931 c 0,-2.004104 -0.25972,-3.648218 -0.71877,-4.558097 -3.662108,-7.247996 -12.767915,-7.054954 -16.774069,0.355157 -0.804541,1.488401 -0.965207,2.537322 -0.985744,6.425453 l -0.02416,4.646646 -1.311425,0.535153 c -1.050977,0.428847 -2.304417,0.391398 -6.312384,-0.186035 L 73.175231,80.523385 V 79.24977 c 0,-0.829908 -0.193282,-1.203186 -0.555688,-1.072721 -0.30563,0.108722 -0.856487,-0.04832 -1.222878,-0.366029 -0.367237,-0.311667 -2.210432,-0.823869 -4.096755,-1.137954 -3.176727,-0.527903 -3.496974,-0.509784 -4.340051,0.253685 -0.89031,0.805749 -1.081176,0.776756 -8.799211,-1.312271 -9.712355,-2.629619 -9.629848,-2.622371 -9.801265,-0.86736 l -0.134088,1.36639 7.382689,2.179026 c 4.060394,1.198354 7.579957,2.301034 7.82132,2.450104 0.241603,0.148585 -0.277844,1.053393 -1.153659,2.009903 -1.874482,2.046505 -4.222389,6.542027 -4.222389,8.084668 0,2.683252 2.475473,4.752348 6.300182,5.266118 1.663927,0.223484 10.164275,-0.33583 11.846321,-0.779172 0.606426,-0.159453 0.738099,0.875814 1.165738,9.185293 0.108721,2.20113 0.416766,4.70125 0.675282,5.55568 0.258517,0.85407 0.468713,3.17081 0.468713,5.14761 0,3.25876 0.108721,3.69159 1.111377,4.63856 0.710315,0.66682 1.115002,1.53792 1.122249,2.41205 0.0059,0.75259 0.196908,2.16815 0.425223,3.14652 0.393815,1.69062 0.330998,1.86688 -1.275546,3.5575 -0.928967,0.97849 -2.151846,2.47922 -2.716715,3.33522 -0.565353,0.85649 -3.789557,4.25791 -7.166092,7.55978 -5.451186,5.33038 -6.310329,6.37713 -7.664881,9.33848 -0.839573,1.83437 -2.122853,4.6359 -2.852738,6.22565 -0.793669,1.73 -2.495284,4.17443 -4.236403,6.08817 -3.671532,4.03564 -4.118378,5.73472 -3.648941,13.8741 0.311669,5.39428 0.361197,5.60388 1.618744,6.77868 1.360714,1.27107 4.218524,2.38668 7.352368,2.87014 1.464481,0.22589 1.952039,0.53394 2.30478,1.45782 1.093258,2.86096 1.073928,3.1399 -0.241603,3.65125 -2.371222,0.92051 -5.235677,2.4158 -7.798611,4.06945 -2.877743,1.85698 -3.42413,3.39695 -1.568733,4.42257 1.575498,0.87097 9.507352,0.73205 11.616191,-0.20295 1.123458,-0.49771 2.867597,-0.76347 5.016784,-0.76347 2.310698,0 3.361797,-0.17396 3.51896,-0.58348 0.198115,-0.51703 -0.298381,-5.71453 -0.965207,-10.0884 -0.218652,-1.43259 -0.09665,-1.64497 1.53056,-2.66816 2.46303,-1.54904 10.375797,-8.10532 11.742188,-9.72927 1.163323,-1.38269 2.663923,-5.04819 4.299702,-10.50421 0.513409,-1.71212 1.2201,-3.48464 1.570667,-3.93911 0.612466,-0.79367 0.736892,-0.76951 3.171775,0.62334 1.393934,0.7973 3.541066,2.34416 4.771555,3.43695 1.230367,1.09325 3.353944,2.69859 4.718885,3.56824 1.36482,0.86977 5.48332,4.38051 9.15196,7.80175 8.20764,7.65401 9.81636,8.74194 12.92725,8.74194 1.26649,0 3.15353,-0.29958 4.1934,-0.66682 2.67383,-0.94347 3.0198,-0.86132 3.75295,0.89393 0.44093,1.05581 1.33522,1.95446 2.76564,2.7793 1.16211,0.67044 2.8229,1.92219 3.68977,2.7817 0.86736,0.86011 2.22324,2.02163 3.01425,2.58226 1.2904,0.91447 4.03949,4.56172 5.24293,6.95541 0.46266,0.92051 0.83474,1.06548 8.08865,3.14714 5.27361,1.51376 10.61885,1.90649 12.0228,0.88305 z m -38.5073,-93.2173 -5.489,-0.58226 -3.13601,-3.23411 c -2.20633,-2.27543 -3.34924,-3.86421 -3.8554,-5.35938 -0.39623,-1.16815 -1.3653,-3.174793 -2.15474,-4.45771 -0.78884,-1.282917 -1.24112,-2.332564 -1.00386,-2.332564 0.23677,0 7.46435,1.901059 16.06049,4.224563 8.59602,2.323621 15.70413,4.224561 15.79581,4.224561 0.0966,0 0.16671,0.50012 0.16671,1.11138 0,0.81058 -0.23797,1.11138 -0.87943,1.11138 -0.92414,0 -1.9152,1.24655 -2.47379,3.11282 -0.18362,0.61126 -0.63661,1.57719 -1.00869,2.14593 -0.76346,1.16815 -1.32097,1.16936 -12.02209,0.0362 z"
       style="fill:#000000;fill-opacity:1;stroke:none;stroke-width:0.444691;stroke-opacity:1" />
  </g>
</svg>
